<svg width="84" height="68" viewBox="0 0 84 68" fill="none" xmlns="http://www.w3.org/2000/svg">
    <path d="M18.8897 51.8989C4.29303 49.1909 1.88088 38.3589 1.88088 31.5889C1.57163 32.153 0.953125 34.2969 0.953125 38.3589C0.953125 43.4364 1.26238 48.2318 9.61214 53.3093C17.7491 58.2574 26.6928 57.1261 32.4967 54.7197C39.3002 51.8989 45.7945 54.6257 48.887 55.566C46.413 53.0272 40.8465 48.796 31.8782 51.0527C27.8238 52.0728 21.6729 52.369 18.8897 51.8989Z" fill="white"/>
    <path d="M24.1469 39.2053C11.5295 40.785 4.35486 34.786 1.88086 31.589L3.42711 37.2307C9.92137 46.8216 21.0472 47.1518 25.3839 47.6678C32.4967 48.5141 41.568 42.4962 47.3407 39.4873C58.1645 30.4607 63.3656 25.5498 68.679 23.1265C73.0085 21.152 76.7195 20.0236 83.2138 20.8698C79.5028 18.049 72.0807 14.664 60.6385 18.049C47.6499 21.8914 39.9187 37.2307 24.1469 39.2053Z" fill="white"/>
    <path d="M26.3114 47.3856C8.99337 47.1599 3.11761 36.7604 1.8806 31.5889C1.2621 38.3589 4.04535 43.148 6.21011 45.6868C16.4154 56.9701 35.2797 50.2064 37.4444 49.6422C39.6092 49.0781 45.3848 45.5977 52.5977 42.3081C58.1642 39.7693 65.8955 40.3335 68.3695 41.1797C66.2047 38.641 59.2688 36.6938 52.5977 38.0768C45.7942 39.4872 43.6294 41.1797 37.4444 44.5647C32.4964 47.2727 27.9607 47.3856 26.3114 47.3856Z" fill="white"/>
</svg>
